<?xml version="1.0"?><svg width="266.66666666666663" height="266.66666666666663" xmlns="http://www.w3.org/2000/svg" xmlns:xlink="http://www.w3.org/1999/xlink">
 <title>my-Hive</title>
 <defs>
  <linearGradient id="linearGradient856">
   <stop stop-color="#ffffff" stop-opacity="0.5" offset="0" id="stop857"/>
   <stop stop-color="#ffffff" stop-opacity="0.25" offset="1" id="stop858"/>
  </linearGradient>
  <linearGradient y2="0.70313" y1="0.50781" xlink:href="#linearGradient856" x2="0.20732" x1="-1.0122" id="linearGradient859"/>
 </defs>
 <g>
  <title>Layer 1</title>
  <path transform="rotate(-41.3309, 64.8154, 56.9442)" fill="#ffc62a" fill-rule="evenodd" stroke="#ff9500" stroke-width="2.5" id="path852" d="m112.884354,99.107918l-62.311398,18.631004l-48.069569,-42.163506l14.24227,-60.794504l62.311693,-18.63097l48.069,42.163469l-14.241997,60.794506l0,0z"/>
  <path transform="rotate(-41.4801, 47.17, 72.6627)" fill="url(#linearGradient859)" fill-rule="evenodd" stroke-width="1.0000000pt" id="path855" d="m83.089546,15.534124c0,0 -58.762197,15.234671 -58.762197,17.955069c0,2.720501 -13.602348,52.233105 -13.058248,57.12991c0,2.176399 39.718852,39.174385 44.615752,39.174385c-19.043304,-44.615288 -29.381104,-99.024685 27.204693,-114.259354l0,-0.00001z"/>
  <path id="svg_2" transform="rotate(-41.3309, 159.571, 113.778)" fill="#ffc62a" fill-rule="evenodd" stroke="#ff9500" stroke-width="2.5" d="m207.639786,155.941483l-62.311401,18.631012l-48.069542,-42.163513l14.242271,-60.794502l62.311676,-18.63097l48.069,42.163464l-14.242004,60.79451l0,0z"/>
  <path id="svg_3" transform="rotate(-41.4801, 143.411, 129.991)" fill="url(#linearGradient859)" fill-rule="evenodd" stroke-width="1.0000000pt" d="m179.330139,72.86274c0,0 -58.762192,15.234665 -58.762192,17.955063c0,2.720505 -13.602348,52.233116 -13.058243,57.129921c0,2.176407 39.718842,39.174393 44.615753,39.174393c-19.043304,-44.615295 -29.381104,-99.024696 27.204681,-114.259369l0,-0.000008z"/>
  <path id="svg_4" transform="rotate(-41.3309, 59.0758, 168.728)" fill="#ffc62a" fill-rule="evenodd" stroke="#ff9500" stroke-width="2.5" d="m107.144768,210.891968l-62.311401,18.631012l-48.069567,-42.163513l14.242271,-60.794495l62.311693,-18.630974l48.068993,42.163475l-14.241989,60.794495l0,0z"/>
  <path id="svg_5" transform="rotate(-41.4801, 40.9354, 186.427)" fill="url(#linearGradient859)" fill-rule="evenodd" stroke-width="1.0000000pt" d="m76.854912,129.29837c0,0 -58.762201,15.23468 -58.762201,17.955078c0,2.72049 -13.602346,52.233093 -13.058247,57.129913c0,2.176392 39.718855,39.174377 44.615751,39.174377c-19.043303,-44.615295 -29.381102,-99.024689 27.204697,-114.259354l0,-0.000015z"/>
  <path id="svg_6" transform="rotate(-41.3309, 165.511, 1.40153)" fill="#ffc62a" fill-rule="evenodd" stroke="#ff9500" stroke-width="2.5" d="m213.580399,43.565254l-62.311401,18.631012l-48.069565,-42.163511l14.242271,-60.794504l62.311684,-18.630974l48.068985,42.163469l-14.241974,60.794508l0,0z"/>
  <path id="svg_7" transform="rotate(-41.4801, 147.866, 17.6151)" fill="url(#linearGradient859)" fill-rule="evenodd" stroke-width="1.0000000pt" d="m183.785599,-39.513485c0,0 -58.762207,15.234663 -58.762207,17.955061c0,2.720505 -13.602348,52.233109 -13.058243,57.129915c0,2.176407 39.718857,39.174389 44.615738,39.174389c-19.043289,-44.615294 -29.381088,-99.024687 27.204712,-114.259357l0,-0.000008z"/>
  <path id="svg_8" transform="rotate(-41.3309, 153.135, 226.154)" fill="#ffc62a" fill-rule="evenodd" stroke="#ff9500" stroke-width="2.5" d="m201.204163,268.317719l-62.311401,18.631012l-48.069565,-42.163528l14.242271,-60.794495l62.311699,-18.630981l48.068985,42.163483l-14.241989,60.79451l0,0z"/>
  <path id="svg_9" transform="rotate(-41.4801, 134.005, 241.377)" fill="url(#linearGradient859)" fill-rule="evenodd" stroke-width="1.0000000pt" d="m169.92421,184.248871c0,0 -58.762207,15.23468 -58.762207,17.955078c0,2.72049 -13.602348,52.233093 -13.05825,57.129913c0,2.176392 39.718864,39.174377 44.615761,39.174377c-19.043312,-44.615295 -29.381111,-99.024689 27.204697,-114.259354l0,-0.000015z"/>
  <path id="svg_10" transform="rotate(-41.3309, 52.1451, 280.609)" fill="#ffc62a" fill-rule="evenodd" stroke="#ff9500" stroke-width="2.5" d="m100.214073,322.773163l-62.311401,18.631012l-48.069565,-42.163513l14.242271,-60.794525l62.311691,-18.630966l48.068993,42.163467l-14.241989,60.794525l0,0z"/>
  <path id="svg_11" transform="rotate(-41.4801, 32.0245, 297.318)" fill="url(#linearGradient859)" fill-rule="evenodd" stroke-width="1.0000000pt" d="m67.944016,240.189453c0,0 -58.762196,15.23465 -58.762196,17.955048c0,2.72052 -13.602346,52.233124 -13.058246,57.129944c0,2.176392 39.718853,39.174377 44.615749,39.174377c-19.043301,-44.615295 -29.3811,-99.024689 27.204693,-114.259354l0,-0.000015z"/>
  <path id="svg_12" transform="rotate(-41.3309, 260.561, 57.8372)" fill="#ffc62a" fill-rule="evenodd" stroke="#ff9500" stroke-width="2.5" d="m308.629883,100.000893l-62.311386,18.630997l-48.069565,-42.163498l14.242264,-60.794503l62.311691,-18.630966l48.06897,42.163468l-14.241974,60.794502l0,0z"/>
  <path id="svg_13" transform="rotate(-41.4801, 245.391, 72.0705)" fill="url(#linearGradient859)" fill-rule="evenodd" stroke-width="1.0000000pt" d="m281.310333,14.941952c0,0 -58.762207,15.234673 -58.762207,17.95507c0,2.720505 -13.602341,52.233105 -13.058243,57.12991c0,2.176392 39.718857,39.174377 44.615753,39.174377c-19.043304,-44.61528 -29.381104,-99.024677 27.204697,-114.25935l0,-0.000008z"/>
  <path id="svg_14" transform="rotate(-41.3309, 252.144, 170.213)" fill="#ffc62a" fill-rule="evenodd" stroke="#ff9500" stroke-width="2.5" d="m300.213135,212.377121l-62.311386,18.630997l-48.069565,-42.163498l14.242264,-60.79451l62.311691,-18.630966l48.069,42.163467l-14.242004,60.79451l0,0z"/>
  <path id="svg_15" transform="rotate(-41.4801, 234.499, 185.932)" fill="url(#linearGradient859)" fill-rule="evenodd" stroke-width="1.0000000pt" d="m270.418335,128.803329c0,0 -58.762207,15.234665 -58.762207,17.955063c0,2.720505 -13.602341,52.233109 -13.058243,57.129913c0,2.176392 39.718857,39.174377 44.615753,39.174377c-19.043304,-44.61528 -29.381104,-99.024673 27.204697,-114.259338l0,-0.000015z"/>
  <path id="svg_16" transform="rotate(-41.3309, 248.184, 282.095)" fill="#ffc62a" fill-rule="evenodd" stroke="#ff9500" stroke-width="2.5" d="m296.252747,324.258331l-62.311386,18.631012l-48.069565,-42.163513l14.242264,-60.794525l62.311691,-18.630966l48.069,42.163467l-14.242004,60.794525l0,0z"/>
  <path id="svg_17" transform="rotate(-41.4801, 230.538, 297.813)" fill="url(#linearGradient859)" fill-rule="evenodd" stroke-width="1.0000000pt" d="m266.457947,240.684509c0,0 -58.762207,15.23468 -58.762207,17.955078c0,2.72052 -13.602341,52.233124 -13.058243,57.129913c0,2.176422 39.718857,39.174408 44.615753,39.174408c-19.043304,-44.615295 -29.381104,-99.024719 27.204697,-114.259384l0,-0.000015z"/>
  <path id="svg_18" transform="rotate(-41.3309, -41.4201, 224.174)" fill="#ffc62a" fill-rule="evenodd" stroke="#ff9500" stroke-width="2.5" d="m6.648827,266.337524l-62.311401,18.630981l-48.069572,-42.163483l14.242271,-60.79451l62.311691,-18.630966l48.069,42.163467l-14.241989,60.79451l0,0z"/>
  <path id="svg_19" transform="rotate(-41.4801, -59.0655, 239.892)" fill="url(#linearGradient859)" fill-rule="evenodd" stroke-width="1.0000000pt" d="m-23.145988,182.763718c0,0 -58.762199,15.23468 -58.762199,17.955078c0,2.720505 -13.602348,52.233109 -13.058243,57.129898c0,2.176392 39.718849,39.174408 44.615746,39.174408c-19.043297,-44.615295 -29.381096,-99.024704 27.204697,-114.259369l0,-0.000015z"/>
  <path id="svg_20" transform="rotate(-41.3309, -34.9845, 111.798)" fill="#ffc62a" fill-rule="evenodd" stroke="#ff9500" stroke-width="2.5" d="m13.084473,153.961288l-62.311401,18.630997l-48.069572,-42.163498l14.242271,-60.794502l62.311691,-18.630974l48.069,42.163475l-14.241989,60.794502l0,0z"/>
  <path id="svg_21" transform="rotate(-41.4801, -52.6299, 127.516)" fill="url(#linearGradient859)" fill-rule="evenodd" stroke-width="1.0000000pt" d="m-16.710342,70.387497c0,0 -58.762199,15.234673 -58.762199,17.95507c0,2.720497 -13.602348,52.233101 -13.05825,57.12989c0,2.176407 39.718857,39.174393 44.615753,39.174393c-19.043301,-44.61528 -29.381104,-99.024681 27.204697,-114.259346l0,-0.000008z"/>
  <path id="svg_22" transform="rotate(-41.3309, -29.5389, -0.0836218)" fill="#ffc62a" fill-rule="evenodd" stroke="#ff9500" stroke-width="2.5" d="m18.530014,42.080105l-62.311401,18.631004l-48.069572,-42.163506l14.242271,-60.794506l62.311691,-18.63097l48.069,42.163467l-14.241989,60.79451l0,0z"/>
  <path id="svg_23" transform="rotate(-41.4801, -47.1844, 15.6349)" fill="url(#linearGradient859)" fill-rule="evenodd" stroke-width="1.0000000pt" d="m-11.264801,-41.49369c0,0 -58.762199,15.234669 -58.762199,17.955067c0,2.720501 -13.602348,52.233109 -13.05825,57.129913c0,2.176399 39.718857,39.174381 44.615753,39.174381c-19.043301,-44.615284 -29.381104,-99.024685 27.204697,-114.259354l0,-0.000008z"/>
 </g>
</svg>